<?xml version="1.0" standalone="no"?>
<!DOCTYPE svg PUBLIC "-//W3C//DTD SVG 20010904//EN"
 "http://www.w3.org/TR/2001/REC-SVG-20010904/DTD/svg10.dtd">
<svg version="1.0" xmlns="http://www.w3.org/2000/svg"
 width="1016.000000pt" height="1275.000000pt" viewBox="0 0 1016.000000 1275.000000"
 preserveAspectRatio="xMidYMid meet">

<g transform="translate(0.000000,1275.000000) scale(0.100000,-0.100000)"
fill="#000000" stroke="none">
<path d="M2286 12072 c-3 -5 -137 -9 -298 -11 -161 -1 -310 -6 -331 -11 -49
-11 -81 -38 -66 -56 6 -7 95 -41 197 -74 103 -34 203 -67 222 -75 19 -8 130
-44 245 -81 215 -69 972 -319 1009 -334 12 -5 56 -19 98 -31 71 -22 77 -25 72
-46 -5 -17 -2 -23 10 -23 9 0 16 7 16 15 0 8 4 15 10 15 5 0 116 -36 247 -79
131 -44 272 -89 313 -102 90 -28 86 -25 71 -43 -9 -10 -9 -16 -1 -21 6 -4 17
1 25 11 12 18 24 15 232 -54 120 -40 227 -77 238 -81 11 -5 74 -26 140 -47 66
-21 127 -41 135 -45 8 -4 56 -20 105 -34 50 -15 117 -38 150 -50 33 -12 92
-32 130 -44 39 -12 79 -26 90 -31 11 -4 94 -32 185 -61 295 -94 824 -270 857
-285 17 -8 35 -14 41 -14 5 0 151 -47 323 -105 173 -58 352 -118 399 -132 47
-14 150 -48 230 -75 80 -27 186 -62 235 -78 50 -16 104 -33 120 -39 17 -6 77
-27 135 -47 131 -45 230 -58 280 -37 62 26 227 53 328 53 108 0 240 -20 326
-50 31 -10 56 -17 56 -14 0 7 -131 65 -182 80 -25 8 -59 21 -75 29 -15 8 -33
15 -39 15 -6 0 -17 7 -24 15 -7 9 -29 15 -52 15 -21 0 -55 7 -76 17 -20 9 -40
15 -45 14 -4 0 -24 6 -45 15 -20 9 -59 22 -87 29 -96 25 -214 72 -232 93 -8 9
-21 12 -40 8 -22 -5 -34 -2 -48 14 -11 13 -31 20 -53 20 -42 0 -99 26 -113 51
-8 15 -21 19 -63 19 -48 0 -57 3 -80 31 -26 31 -27 31 -47 13 -19 -17 -21 -18
-30 -1 -6 11 -22 17 -43 17 -23 0 -41 9 -62 30 -33 33 -49 37 -58 14 -6 -16
-8 -16 -24 0 -10 9 -32 16 -48 16 -21 0 -40 10 -65 36 -27 29 -39 34 -62 30
-20 -4 -32 0 -44 14 -16 18 -18 18 -35 3 -17 -15 -19 -15 -36 0 -10 10 -26 17
-34 17 -9 0 -21 7 -28 15 -7 8 -19 15 -28 15 -8 0 -24 8 -34 17 -17 15 -19 15
-33 -3 -14 -18 -16 -18 -26 -1 -6 11 -22 17 -45 17 -25 0 -43 8 -64 30 -30 30
-50 38 -50 20 0 -18 -23 -11 -51 16 -23 22 -29 24 -47 13 -16 -10 -23 -10 -35
3 -9 9 -26 13 -39 11 -17 -3 -34 6 -61 32 -36 35 -39 36 -52 19 -13 -18 -14
-18 -32 -1 -11 9 -33 17 -50 17 -17 0 -36 7 -43 15 -7 8 -23 15 -35 15 -13 0
-25 7 -29 15 -3 8 -15 15 -27 15 -12 0 -28 8 -34 17 -13 17 -14 17 -33 0 -17
-16 -21 -16 -32 -2 -7 8 -20 15 -30 15 -10 0 -23 7 -30 15 -7 8 -20 15 -30 15
-10 0 -23 7 -30 15 -14 17 -40 20 -40 5 0 -15 -19 -12 -36 5 -10 9 -25 13 -39
9 -18 -5 -32 3 -60 32 -36 36 -38 37 -51 19 -13 -18 -15 -18 -47 13 -31 30
-34 31 -50 14 -17 -16 -19 -16 -28 1 -7 11 -22 17 -45 17 -25 0 -43 8 -64 30
-30 30 -50 38 -50 20 0 -19 -29 -10 -50 17 -19 24 -24 26 -42 14 -15 -9 -23
-10 -31 -2 -6 6 -21 11 -34 11 -12 0 -27 9 -33 21 -7 12 -18 18 -26 15 -8 -3
-22 3 -31 14 -16 18 -18 18 -35 3 -17 -15 -19 -15 -36 0 -10 10 -32 17 -47 17
-19 0 -40 11 -62 32 -32 31 -34 31 -47 13 -13 -18 -15 -17 -44 15 -30 32 -32
33 -50 17 -17 -16 -20 -16 -32 -2 -7 8 -26 15 -43 15 -21 0 -41 10 -63 31 -28
27 -34 29 -52 18 -17 -10 -23 -10 -37 4 -10 11 -25 15 -39 11 -15 -3 -28 2
-40 15 -13 14 -31 21 -57 21 -29 0 -43 6 -63 31 -26 31 -27 31 -47 13 -19 -17
-21 -18 -30 -1 -6 11 -22 17 -43 17 -23 0 -42 9 -64 31 -31 30 -33 31 -51 15
-16 -15 -19 -15 -31 -1 -7 8 -27 15 -44 15 -24 0 -41 9 -66 35 -28 29 -40 34
-62 30 -20 -5 -32 -1 -45 14 -16 19 -18 19 -35 4 -17 -15 -19 -15 -36 0 -10
10 -26 17 -34 17 -9 0 -21 7 -28 15 -7 8 -19 15 -28 15 -8 0 -24 8 -34 17 -17
15 -19 15 -33 -3 -14 -18 -16 -18 -26 -1 -6 11 -22 17 -45 17 -25 0 -43 8 -64
30 -21 21 -39 30 -61 30 -18 0 -41 7 -51 16 -15 14 -20 15 -33 4 -12 -10 -19
-10 -27 -2 -7 7 -22 12 -35 12 -12 0 -27 9 -33 21 -7 12 -18 18 -26 15 -7 -3
-23 4 -34 16 -20 21 -20 21 -34 3 -14 -19 -15 -19 -33 -2 -11 9 -33 17 -49 17
-21 0 -40 10 -59 30 -22 23 -38 30 -67 30 -25 0 -41 5 -44 15 -4 10 -20 15
-44 15 -21 0 -43 7 -50 15 -7 8 -27 15 -45 15 -19 0 -39 8 -50 20 -14 15 -26
19 -46 15 -20 -5 -32 -1 -47 16 -15 15 -28 20 -48 16 -18 -3 -32 1 -45 14 -11
11 -33 19 -53 19 -18 0 -39 7 -46 15 -7 8 -29 15 -50 15 -24 0 -40 5 -44 15
-3 10 -19 15 -46 15 -27 0 -43 5 -46 15 -7 16 -98 22 -108 7z"/>
<path d="M1337 11959 c-15 -15 -42 -31 -60 -34 -18 -4 -36 -11 -42 -15 -5 -4
-26 -13 -45 -18 -69 -21 -266 -105 -305 -131 -51 -34 -57 -64 -19 -94 16 -12
35 -30 43 -39 10 -11 30 -18 54 -18 24 0 40 -5 43 -15 4 -10 20 -15 44 -15 21
0 43 -7 50 -15 7 -8 29 -15 50 -15 24 0 40 -5 44 -15 3 -10 19 -15 43 -15 26
0 44 -6 56 -20 12 -15 24 -19 43 -14 18 5 32 0 49 -16 17 -16 31 -21 48 -16
17 4 30 0 42 -14 14 -15 31 -20 70 -20 38 0 55 -4 59 -15 3 -10 19 -15 44 -15
23 0 45 -6 52 -15 7 -8 26 -15 43 -15 20 0 42 -11 67 -34 29 -26 44 -33 64
-29 20 4 33 -1 48 -16 15 -17 27 -21 47 -16 20 4 32 0 46 -15 11 -12 31 -20
50 -20 18 0 38 -7 45 -15 7 -8 29 -15 50 -15 24 0 40 -5 44 -15 3 -10 19 -15
44 -15 23 0 45 -6 52 -15 7 -8 27 -15 45 -15 18 0 38 -7 45 -15 7 -9 29 -15
51 -15 25 0 41 -6 47 -17 8 -13 21 -16 56 -14 41 2 49 -2 82 -36 34 -35 37
-36 50 -18 13 17 15 17 32 2 10 -9 28 -17 39 -17 12 0 23 -7 27 -15 3 -8 16
-15 30 -15 13 0 26 -7 30 -15 3 -10 19 -15 46 -15 27 0 43 -5 46 -15 4 -10 20
-15 44 -15 21 0 43 -7 50 -15 7 -8 29 -15 49 -15 26 0 40 -6 49 -20 10 -17 19
-20 46 -14 28 5 36 2 46 -15 8 -16 19 -21 45 -19 21 1 41 -5 53 -15 10 -9 35
-17 54 -17 23 0 38 -6 42 -15 4 -10 20 -15 53 -15 40 0 54 -5 81 -30 38 -34
47 -37 56 -14 6 16 8 16 24 0 10 -9 25 -16 34 -16 8 0 23 -9 33 -20 10 -11 22
-17 27 -14 5 3 20 -4 33 -16 18 -17 30 -20 53 -15 25 5 33 2 42 -14 8 -16 21
-21 49 -21 22 0 44 -6 51 -15 7 -8 27 -15 45 -15 18 0 38 -7 45 -15 7 -9 29
-15 52 -15 25 0 41 -5 44 -15 4 -10 20 -15 44 -15 21 0 43 -7 50 -15 8 -9 30
-15 60 -15 34 0 52 -5 65 -20 12 -13 25 -17 44 -14 20 4 34 -3 64 -32 36 -35
38 -36 51 -18 14 18 15 18 33 1 11 -9 27 -17 35 -17 9 0 21 -7 28 -15 7 -8 20
-15 30 -15 10 0 23 -7 30 -15 7 -9 29 -15 52 -15 25 0 41 -5 44 -15 4 -10 20
-15 44 -15 23 0 43 -7 54 -19 11 -12 25 -16 42 -13 17 3 33 -3 48 -17 17 -16
30 -20 49 -16 19 5 30 1 44 -14 13 -16 29 -21 69 -21 34 0 56 -5 64 -15 7 -8
27 -15 45 -15 18 0 38 -7 45 -15 7 -8 27 -15 44 -15 23 0 42 -9 64 -31 31 -31
33 -31 52 -14 18 16 20 16 26 1 3 -9 16 -16 29 -16 12 0 30 -9 40 -20 10 -11
22 -17 27 -14 5 3 20 -4 33 -16 18 -16 31 -21 49 -16 19 5 31 1 43 -14 12 -14
30 -20 56 -20 24 0 40 -5 43 -15 4 -10 20 -15 44 -15 21 0 43 -7 50 -15 7 -8
29 -15 50 -15 24 0 40 -5 44 -15 4 -10 20 -15 52 -15 37 0 54 -6 87 -32 37
-29 47 -33 93 -30 48 3 55 1 91 -32 36 -32 41 -34 56 -19 14 14 18 13 47 -18
30 -33 32 -33 46 -15 14 19 15 19 47 -12 23 -22 43 -32 64 -32 17 0 36 -7 43
-15 7 -9 29 -15 51 -15 25 0 41 -6 48 -17 6 -12 20 -16 43 -15 24 2 40 -4 53
-18 14 -15 26 -19 45 -15 19 4 31 0 45 -15 13 -15 31 -20 65 -20 39 0 52 -5
79 -32 32 -31 34 -32 47 -13 13 17 15 17 32 2 10 -9 32 -17 47 -17 19 0 40
-11 62 -32 31 -30 34 -30 51 -15 17 15 20 15 45 -15 37 -41 94 -48 107 -12 5
13 42 54 82 91 40 38 89 84 108 104 19 20 53 48 75 62 22 13 47 33 57 43 15
18 15 21 -1 54 -15 31 -20 35 -50 32 -25 -3 -37 2 -48 18 -12 17 -21 19 -48
14 -27 -5 -35 -2 -45 15 -8 16 -19 21 -45 19 -21 -1 -41 5 -53 15 -10 9 -35
17 -54 17 -23 0 -38 6 -42 15 -3 10 -19 15 -46 15 -27 0 -43 5 -46 15 -4 11
-21 15 -59 15 -34 0 -57 5 -65 15 -7 8 -27 15 -45 15 -18 0 -38 7 -45 15 -7 8
-23 15 -36 15 -13 0 -28 9 -34 21 -7 12 -18 18 -26 15 -8 -3 -22 3 -31 14 -16
18 -18 18 -35 3 -17 -15 -19 -15 -36 0 -10 10 -26 17 -34 17 -9 0 -21 7 -28
15 -7 8 -20 15 -30 15 -10 0 -23 7 -30 15 -7 9 -29 15 -52 15 -25 0 -41 5 -44
15 -4 10 -20 15 -44 15 -21 0 -43 7 -50 15 -7 8 -27 15 -45 15 -19 0 -39 8
-50 20 -14 15 -26 19 -46 15 -20 -5 -32 -1 -47 16 -15 15 -28 20 -48 16 -18
-3 -32 1 -45 14 -11 11 -33 19 -53 19 -18 0 -39 7 -46 15 -8 9 -30 15 -58 15
-38 0 -52 5 -79 32 -31 30 -33 31 -51 14 -17 -15 -20 -15 -32 -1 -7 8 -27 15
-44 15 -24 0 -41 9 -66 35 -28 29 -40 34 -61 30 -20 -5 -32 0 -47 16 -15 15
-28 20 -48 16 -18 -3 -32 1 -45 14 -11 11 -33 19 -53 19 -18 0 -39 7 -46 15
-7 8 -29 15 -50 15 -24 0 -40 5 -44 15 -3 10 -19 15 -46 15 -27 0 -43 5 -46
15 -4 10 -20 15 -44 15 -24 0 -43 7 -55 20 -12 13 -25 17 -44 14 -19 -4 -32 0
-45 15 -15 16 -31 21 -71 21 -38 0 -55 4 -59 15 -3 8 -17 15 -31 15 -14 0 -28
7 -31 15 -4 10 -20 15 -44 15 -21 0 -43 7 -50 15 -7 8 -19 15 -28 15 -8 0 -24
8 -35 17 -18 17 -20 17 -34 -2 -13 -19 -15 -19 -27 -2 -7 9 -23 17 -35 17 -12
0 -24 7 -27 15 -4 8 -16 15 -29 15 -12 0 -30 9 -40 20 -12 14 -25 18 -42 14
-17 -5 -31 0 -47 15 -15 15 -33 21 -55 19 -22 -2 -36 3 -42 15 -7 12 -23 17
-50 17 -26 0 -42 5 -45 15 -4 10 -20 15 -44 15 -21 0 -43 7 -50 15 -7 8 -29
15 -50 15 -24 0 -40 5 -44 15 -3 10 -19 15 -45 15 -27 0 -43 5 -50 17 -6 12
-20 17 -42 15 -22 -2 -40 4 -56 19 -12 13 -26 19 -30 16 -3 -4 -17 3 -29 14
-21 20 -24 20 -30 5 -8 -20 -30 -21 -38 -1 -3 8 -16 15 -30 15 -13 0 -26 7
-30 15 -3 8 -15 15 -27 15 -12 0 -28 8 -34 17 -13 17 -14 17 -32 0 -19 -16
-21 -16 -48 13 -22 23 -38 30 -66 30 -24 0 -39 5 -43 15 -3 10 -19 15 -45 15
-27 0 -43 5 -50 17 -6 12 -20 17 -42 15 -22 -2 -40 4 -55 19 -16 15 -30 20
-47 15 -17 -4 -30 0 -42 14 -12 13 -31 20 -55 20 -24 0 -40 5 -44 15 -3 10
-19 15 -44 15 -23 0 -45 6 -52 15 -7 8 -27 15 -45 15 -18 0 -38 7 -45 15 -7 9
-29 15 -51 15 -26 0 -41 6 -48 17 -6 12 -20 17 -42 15 -22 -2 -38 4 -51 18
-11 11 -24 18 -29 14 -6 -3 -21 4 -33 15 -18 17 -34 22 -71 20 -36 -2 -49 1
-57 14 -5 9 -20 17 -32 17 -13 0 -26 7 -30 15 -3 10 -19 15 -46 15 -27 0 -43
5 -46 15 -4 10 -20 15 -44 15 -21 0 -43 7 -50 15 -7 9 -29 15 -51 15 -28 0
-41 5 -49 20 -9 17 -17 20 -45 14 -28 -5 -35 -2 -45 16 -10 18 -17 21 -44 16
-25 -5 -37 -2 -51 14 -12 13 -31 20 -55 20 -24 0 -40 5 -44 15 -3 10 -19 15
-46 15 -27 0 -43 5 -46 15 -4 10 -20 15 -44 15 -21 0 -43 7 -50 15 -7 8 -29
15 -50 15 -24 0 -40 5 -44 15 -3 8 -14 15 -24 15 -11 0 -25 7 -32 15 -14 17
-40 20 -40 5 0 -15 -19 -12 -36 5 -8 8 -20 12 -27 9 -7 -2 -22 4 -32 16 -10
11 -27 20 -37 20 -10 0 -21 7 -24 15 -8 20 -14 18 -47 -16z"/>
<path d="M574 11586 c5 -20 -8 -37 -85 -112 -103 -101 -179 -195 -179 -223 0
-10 -20 -33 -45 -52 -46 -35 -54 -52 -31 -66 7 -4 25 -28 40 -52 24 -38 31
-43 56 -38 20 4 33 1 45 -13 12 -13 31 -20 55 -20 24 0 40 -5 44 -15 3 -8 16
-15 30 -15 13 0 26 -7 30 -15 3 -10 19 -15 46 -15 27 0 43 -5 46 -15 4 -8 16
-15 29 -15 12 0 28 -7 35 -15 7 -8 27 -15 45 -15 19 0 39 -8 50 -20 14 -16 26
-19 51 -14 26 5 34 2 43 -15 7 -13 22 -21 37 -21 13 0 27 -7 30 -15 5 -11 23
-15 73 -15 62 0 70 -3 96 -30 22 -23 38 -30 67 -30 25 0 41 -5 44 -15 4 -11
21 -15 58 -15 47 0 56 -4 87 -36 27 -28 40 -34 60 -30 19 3 32 -1 44 -14 13
-15 31 -20 68 -20 42 0 54 -5 79 -30 20 -22 37 -30 62 -30 18 0 39 -7 46 -15
7 -8 29 -15 50 -15 24 0 40 -5 44 -15 4 -11 20 -15 55 -15 42 0 54 -5 87 -35
30 -27 45 -34 65 -31 18 4 32 -1 44 -14 13 -15 31 -20 65 -20 38 0 52 -5 78
-31 30 -30 34 -31 50 -15 17 15 20 14 47 -14 24 -25 37 -30 75 -30 38 0 51 -5
75 -30 28 -30 55 -39 55 -20 0 20 26 9 50 -20 19 -23 33 -30 61 -30 20 0 42
-7 49 -15 8 -9 30 -15 60 -15 39 0 52 -5 76 -30 22 -22 38 -30 67 -30 24 0 40
-5 43 -15 4 -10 20 -15 44 -15 24 0 43 -7 55 -20 10 -11 22 -17 27 -14 5 3 20
-4 33 -16 18 -16 31 -21 49 -16 19 5 31 1 43 -14 12 -14 30 -20 56 -20 24 0
40 -5 43 -15 4 -11 21 -15 59 -15 34 0 57 -5 65 -15 7 -8 23 -15 35 -15 13 0
25 -7 29 -15 3 -8 17 -15 31 -15 14 0 28 -7 31 -15 4 -10 20 -15 44 -15 24 0
43 -7 55 -20 12 -13 25 -17 44 -14 19 4 32 0 45 -15 11 -12 27 -21 36 -21 10
0 23 -7 30 -15 7 -9 29 -15 52 -15 25 0 41 -5 44 -15 4 -11 21 -15 58 -15 45
0 56 -4 81 -30 21 -22 38 -30 63 -30 21 0 40 -7 47 -17 9 -12 24 -16 48 -15
25 2 39 -3 45 -15 8 -12 25 -18 62 -20 44 -1 58 -7 84 -32 24 -23 41 -31 68
-31 23 0 38 -6 42 -15 3 -10 19 -15 46 -15 27 0 43 -5 46 -15 4 -8 16 -15 29
-15 12 0 28 -7 35 -15 7 -8 27 -15 45 -15 18 0 39 -8 49 -19 13 -14 26 -17 60
-14 40 5 47 2 79 -30 32 -33 35 -34 50 -19 16 15 19 14 50 -16 23 -22 43 -32
64 -32 17 0 36 -7 43 -15 7 -9 29 -15 52 -15 25 0 41 -5 44 -15 4 -8 17 -15
30 -15 12 0 27 -8 33 -17 6 -12 20 -16 43 -15 24 2 40 -4 52 -17 15 -16 27
-19 60 -15 37 5 44 2 75 -30 33 -34 36 -35 54 -18 18 16 20 15 48 -16 22 -24
37 -32 63 -32 18 0 39 -7 46 -15 7 -8 19 -15 28 -15 8 0 24 -8 35 -17 18 -17
20 -17 34 2 13 19 15 19 27 3 7 -10 23 -18 35 -18 12 0 24 -7 27 -15 4 -8 16
-15 28 -15 12 0 30 -9 39 -21 13 -15 25 -19 46 -14 20 4 32 0 46 -15 12 -13
31 -20 55 -20 24 0 40 -5 44 -15 3 -8 16 -15 30 -15 13 0 26 -7 30 -15 3 -10
19 -15 44 -15 23 0 45 -6 52 -15 8 -9 30 -15 59 -15 41 0 52 -5 81 -35 29 -30
39 -34 66 -29 26 5 34 2 43 -15 10 -17 21 -21 65 -21 35 0 58 -5 66 -15 7 -8
27 -15 44 -15 23 0 41 -9 61 -30 22 -23 38 -30 66 -30 21 0 42 -6 46 -14 4 -7
34 -16 65 -20 67 -7 66 -8 103 114 29 98 101 294 124 340 10 19 26 52 34 73
16 34 25 41 53 38 19 -2 36 27 29 49 -4 12 -15 20 -29 20 -13 0 -29 7 -36 15
-7 8 -29 15 -50 15 -24 0 -40 5 -44 15 -4 11 -20 15 -56 15 -43 0 -55 4 -80
30 -30 30 -50 38 -50 20 0 -19 -26 -10 -54 19 -23 23 -35 29 -56 24 -20 -4
-33 1 -48 17 -15 17 -27 21 -46 16 -18 -4 -31 -1 -46 14 -14 14 -33 20 -67 20
-39 0 -52 5 -80 32 -32 31 -33 31 -47 13 -13 -19 -15 -18 -42 13 -23 25 -36
32 -67 32 -24 0 -40 5 -43 15 -4 10 -20 15 -44 15 -24 0 -43 7 -55 20 -12 13
-25 17 -44 14 -19 -4 -32 0 -45 15 -11 12 -29 21 -41 21 -13 0 -26 7 -29 16
-6 15 -8 15 -27 -2 -20 -18 -21 -18 -34 -1 -7 10 -25 17 -47 17 -25 0 -42 8
-63 30 -22 23 -38 30 -66 30 -24 0 -39 5 -43 15 -3 10 -19 15 -46 15 -27 0
-43 5 -46 15 -4 8 -17 15 -30 15 -12 0 -27 8 -33 18 -9 15 -13 15 -31 4 -19
-11 -25 -11 -41 4 -11 10 -27 14 -42 10 -18 -4 -31 3 -58 29 -27 27 -42 34
-72 35 -24 0 -40 5 -43 15 -4 10 -20 15 -44 15 -21 0 -43 7 -50 15 -7 8 -29
15 -50 15 -24 0 -40 5 -44 15 -4 11 -21 15 -61 15 -40 0 -57 4 -61 15 -4 8
-16 15 -29 15 -12 0 -30 9 -40 20 -10 12 -24 19 -31 16 -7 -3 -20 4 -30 15
-16 18 -19 18 -35 3 -17 -16 -20 -15 -46 15 -22 24 -35 31 -66 31 -24 0 -40 5
-43 15 -4 10 -20 15 -44 15 -21 0 -43 7 -50 15 -8 9 -30 15 -59 15 -39 0 -52
5 -76 30 -28 30 -55 39 -55 20 0 -20 -27 -10 -56 21 -22 23 -35 29 -55 25 -19
-3 -32 1 -44 14 -12 13 -31 20 -55 20 -24 0 -40 5 -44 15 -4 11 -21 15 -59 15
-46 0 -56 4 -77 30 -28 33 -45 37 -54 14 -6 -16 -8 -16 -24 0 -10 9 -26 16
-34 16 -9 0 -21 7 -28 15 -7 8 -21 15 -31 15 -10 0 -27 9 -38 21 -15 16 -26
19 -50 14 -24 -5 -33 -2 -43 14 -10 17 -23 21 -62 21 -43 0 -55 5 -83 32 -32
31 -33 31 -48 12 -14 -18 -16 -18 -26 -1 -6 11 -22 17 -45 17 -25 0 -43 8 -64
30 -21 22 -39 30 -63 30 -21 0 -41 7 -52 20 -12 13 -25 17 -45 14 -20 -5 -33
0 -48 16 -15 17 -27 21 -46 16 -18 -4 -31 -1 -46 14 -15 15 -33 20 -69 20 -31
0 -53 5 -61 15 -7 8 -23 15 -35 15 -13 0 -25 7 -29 15 -3 8 -16 15 -30 15 -13
0 -26 7 -30 15 -3 10 -19 15 -46 15 -27 0 -43 5 -46 15 -4 10 -20 15 -44 15
-24 0 -43 7 -55 20 -14 15 -26 19 -46 15 -21 -5 -33 -1 -46 14 -9 12 -26 21
-37 21 -10 0 -25 8 -32 18 -12 16 -14 16 -28 -3 -16 -20 -16 -19 -46 13 -22
24 -38 32 -64 32 -18 0 -39 7 -46 15 -7 8 -29 15 -50 15 -24 0 -40 5 -44 15
-3 10 -19 15 -43 15 -26 0 -44 7 -55 19 -13 15 -25 18 -58 14 -38 -5 -45 -3
-80 32 -33 32 -40 36 -46 22 -9 -24 -26 -20 -54 13 -19 24 -32 30 -62 30 -25
0 -41 5 -44 15 -4 10 -20 15 -44 15 -21 0 -43 7 -50 15 -7 8 -29 15 -50 15
-24 0 -40 5 -44 15 -4 11 -20 15 -58 15 -41 0 -58 5 -71 20 -9 11 -22 17 -30
14 -7 -2 -22 4 -32 16 -10 11 -26 20 -35 20 -10 0 -23 7 -30 15 -7 8 -29 15
-50 15 -24 0 -40 5 -44 15 -3 10 -19 15 -46 15 -27 0 -43 5 -46 15 -4 10 -20
15 -44 15 -21 0 -43 7 -50 15 -8 9 -30 15 -59 15 -40 0 -52 5 -84 36 -30 29
-41 35 -65 29 -21 -4 -33 -1 -47 15 -11 12 -31 20 -50 20 -18 0 -38 7 -45 15
-7 8 -29 15 -50 15 -24 0 -40 5 -44 15 -3 8 -17 15 -32 15 -23 0 -25 -3 -20
-24z"/>
<path d="M225 10838 c-3 -7 -4 -211 -3 -453 l3 -440 40 -3 c22 -2 44 -10 48
-18 5 -8 24 -14 48 -14 26 0 42 -5 45 -15 4 -8 16 -15 29 -15 12 0 28 -7 35
-15 7 -8 27 -15 45 -15 19 0 39 -8 50 -20 14 -15 26 -19 46 -15 20 5 32 1 47
-16 15 -15 28 -20 48 -16 18 3 32 -1 45 -14 13 -13 33 -19 67 -19 41 0 53 -5
77 -30 22 -23 38 -30 67 -30 25 0 41 -5 44 -15 4 -9 19 -15 42 -15 19 0 44 -8
54 -17 13 -12 32 -16 60 -14 30 2 46 -3 63 -19 13 -12 28 -19 34 -16 6 4 18
-2 28 -14 10 -11 27 -20 39 -20 12 0 24 -7 28 -15 3 -10 19 -15 44 -15 23 0
45 -6 52 -15 7 -8 27 -15 45 -15 18 0 38 -7 45 -15 7 -8 19 -15 28 -15 8 0 24
-8 34 -17 17 -15 20 -15 35 0 15 15 19 14 50 -18 27 -28 39 -34 59 -29 18 5
32 0 49 -16 17 -16 31 -21 48 -16 17 4 30 0 42 -14 13 -14 31 -20 64 -20 38 0
53 -6 79 -30 23 -21 44 -30 66 -30 19 0 39 -7 46 -15 7 -8 29 -15 50 -15 24 0
40 -5 44 -15 3 -8 16 -15 30 -15 13 0 26 -7 30 -15 6 -17 36 -21 36 -5 0 15
26 12 40 -4 6 -8 17 -13 24 -10 7 3 21 -4 31 -16 10 -11 26 -20 35 -20 10 0
23 -7 30 -15 7 -8 29 -15 50 -15 24 0 40 -5 44 -15 4 -11 21 -15 59 -15 46 0
56 -4 77 -30 25 -29 50 -39 50 -20 0 19 26 10 54 -19 23 -24 34 -28 61 -24 27
4 35 1 45 -17 10 -18 17 -21 46 -16 27 6 36 3 46 -14 9 -14 23 -20 49 -20 20
0 42 -7 49 -15 7 -8 20 -15 30 -15 10 0 23 -7 30 -15 7 -8 29 -15 50 -15 24 0
40 -5 44 -15 4 -11 21 -15 60 -15 49 0 57 -3 81 -32 24 -28 29 -30 47 -19 18
11 24 9 53 -19 27 -26 39 -31 59 -26 19 5 31 1 43 -14 12 -13 30 -20 54 -20
20 0 42 -7 49 -15 8 -9 30 -15 59 -15 39 0 52 -5 76 -30 22 -23 38 -30 66 -30
26 0 41 -6 48 -17 6 -12 20 -17 42 -15 21 2 40 -4 55 -19 15 -15 29 -19 44
-14 15 5 29 1 44 -14 15 -15 34 -21 55 -19 22 2 36 -3 42 -15 6 -9 21 -17 35
-17 13 0 27 -7 30 -15 4 -10 20 -15 44 -15 21 0 43 -7 50 -15 8 -9 30 -15 60
-15 30 0 52 -6 60 -15 7 -8 27 -15 44 -15 21 0 43 -11 71 -35 31 -28 45 -34
65 -30 19 4 32 0 45 -15 12 -13 31 -20 55 -20 24 0 40 -5 44 -15 4 -11 20 -15
56 -15 43 0 55 -4 80 -30 33 -34 45 -37 54 -13 6 14 12 12 39 -15 24 -23 42
-32 68 -32 23 0 38 -6 47 -20 10 -16 19 -19 56 -14 41 6 46 4 81 -32 36 -36
38 -37 51 -19 13 18 15 18 47 -13 25 -24 42 -32 69 -32 23 0 38 -6 42 -15 3
-10 19 -15 46 -15 27 0 43 -5 46 -15 4 -11 21 -15 58 -15 46 0 56 -4 86 -35
28 -29 40 -34 62 -30 20 5 32 1 45 -14 13 -16 29 -21 69 -21 46 0 55 -4 77
-30 29 -33 42 -37 51 -15 7 19 26 19 26 0 0 -10 10 -15 29 -15 16 0 31 -6 35
-15 3 -8 17 -15 31 -15 14 0 28 -7 31 -15 4 -10 20 -15 44 -15 23 0 43 -7 54
-19 13 -14 26 -17 59 -14 38 4 45 1 76 -31 32 -33 36 -35 52 -20 16 15 20 14
48 -15 22 -23 39 -31 64 -31 19 0 40 -7 47 -15 7 -8 27 -15 45 -15 18 0 38 -7
45 -15 8 -9 30 -15 59 -15 38 0 52 -6 85 -35 45 -40 61 -43 76 -16 5 11 19 23
30 26 11 4 18 10 15 14 -2 5 -5 191 -5 414 -1 447 3 417 -65 417 -19 0 -37 5
-40 10 -3 6 -14 10 -23 10 -9 0 -30 7 -45 15 -15 8 -42 19 -60 24 -18 5 -77
26 -132 46 -98 36 -312 113 -390 141 -22 8 -48 19 -57 24 -10 6 -25 10 -34 10
-8 0 -25 5 -37 12 -12 6 -71 28 -132 49 -60 20 -135 48 -166 62 -31 14 -71 28
-89 32 -28 6 -67 21 -145 55 -16 7 -51 19 -75 25 -3 1 -12 5 -20 8 -8 3 -44
16 -79 28 -35 12 -75 28 -90 35 -14 8 -36 14 -48 14 -12 0 -25 5 -28 10 -3 6
-1 10 4 10 6 0 11 9 11 20 0 24 -13 26 -30 5 -15 -19 -49 -19 -75 -2 -11 8
-53 24 -93 37 -40 12 -75 27 -78 31 -3 5 -13 9 -22 9 -9 0 -39 9 -67 20 -117
46 -302 110 -317 110 -8 0 -21 7 -28 15 -7 8 -25 15 -39 15 -15 0 -36 7 -47
15 -10 8 -26 15 -35 15 -14 0 -52 14 -134 50 -11 5 -49 19 -85 30 -73 25 -85
29 -155 58 -27 11 -75 28 -105 37 -30 9 -68 23 -85 30 -16 8 -63 25 -103 38
-40 14 -76 27 -79 31 -4 3 -13 6 -21 6 -8 0 -28 7 -45 15 -41 18 -113 44 -155
55 -18 4 -38 12 -45 17 -7 5 -43 20 -82 32 -38 13 -74 28 -79 32 -6 5 -20 9
-32 9 -12 0 -27 7 -34 15 -7 8 -21 15 -31 15 -18 0 -146 44 -309 105 -36 14
-69 25 -74 25 -4 0 -22 6 -39 14 -18 7 -54 21 -82 31 -27 10 -63 23 -80 30
-16 7 -59 23 -95 35 -36 12 -73 26 -82 31 -10 5 -23 9 -30 9 -7 0 -26 7 -43
16 -16 9 -43 20 -60 25 -96 26 -125 41 -125 65 0 14 -6 24 -15 24 -9 0 -12 -6
-8 -16 8 -22 -11 -18 -142 30 -55 21 -134 49 -175 63 -41 14 -88 31 -105 39
-16 7 -61 23 -100 36 -38 13 -71 26 -73 31 -2 4 -16 7 -31 7 -15 0 -31 4 -36
9 -10 10 -39 21 -190 73 -49 16 -108 38 -130 48 -22 10 -87 35 -145 55 -233
81 -322 114 -328 119 -3 3 -13 6 -22 6 -8 0 -32 8 -53 19 -20 10 -53 22 -72
25 -19 4 -35 11 -35 16 0 6 -9 10 -20 10 -10 0 -34 6 -52 14 -38 17 -197 76
-204 76 -3 0 -7 -6 -9 -12z"/>
<path d="M220 9295 l0 -455 24 0 c13 0 29 -7 36 -15 7 -8 27 -15 45 -15 19 0
39 -8 50 -20 14 -15 26 -18 59 -14 37 5 45 2 80 -30 28 -26 48 -36 71 -36 18
0 38 -7 45 -15 7 -8 20 -15 30 -15 10 0 23 -7 30 -15 7 -9 29 -15 52 -15 25 0
41 -5 44 -15 4 -10 21 -15 54 -15 41 0 54 -5 86 -35 30 -27 45 -34 65 -30 17
4 31 0 44 -15 10 -11 28 -20 40 -20 13 0 25 -7 29 -15 3 -10 19 -15 46 -15 27
0 43 -5 46 -15 4 -11 21 -15 58 -15 45 0 56 -4 81 -30 24 -25 37 -30 75 -30
40 0 52 -5 84 -36 30 -29 42 -34 64 -29 21 4 33 0 47 -15 11 -12 31 -20 50
-20 18 0 38 -7 45 -15 7 -8 23 -15 35 -15 13 0 25 -7 29 -15 3 -10 19 -15 46
-15 27 0 43 -5 46 -15 4 -8 17 -15 30 -15 14 0 27 -7 30 -15 4 -10 20 -15 44
-15 24 0 43 -7 55 -20 14 -15 26 -19 46 -15 21 5 33 1 46 -14 9 -12 27 -21 39
-21 12 0 24 -7 28 -15 4 -11 21 -15 59 -15 46 0 57 -4 82 -30 22 -23 38 -30
66 -30 24 0 39 -5 43 -15 3 -10 19 -15 46 -15 27 0 43 -5 46 -15 4 -8 16 -15
28 -15 12 0 30 -9 39 -21 13 -15 25 -19 46 -14 20 4 32 0 46 -15 10 -11 26
-20 35 -20 10 0 23 -7 30 -15 7 -8 29 -15 50 -15 24 0 40 -5 44 -15 4 -10 20
-15 51 -15 33 0 45 -4 45 -15 0 -9 9 -15 24 -15 13 0 29 -7 36 -15 8 -9 30
-15 59 -15 40 0 52 -5 84 -36 29 -29 42 -35 62 -30 17 4 31 0 45 -14 15 -15
33 -20 75 -20 33 0 55 -4 55 -11 0 -22 45 -48 83 -49 24 0 40 -5 43 -15 4 -10
20 -15 45 -15 26 0 42 -5 45 -15 4 -8 16 -15 29 -15 12 0 30 -9 40 -20 14 -15
26 -19 45 -15 19 4 31 0 45 -15 10 -11 28 -20 40 -20 13 0 25 -7 29 -15 3 -10
19 -15 46 -15 27 0 43 -5 46 -15 4 -8 16 -15 29 -15 12 0 28 -7 35 -15 7 -8
27 -15 45 -15 18 0 38 -7 45 -15 8 -9 30 -15 59 -15 39 0 52 -6 86 -35 33 -30
45 -35 77 -31 27 3 45 -1 62 -15 13 -10 31 -19 39 -19 8 0 20 -7 27 -15 7 -8
27 -15 44 -15 23 0 42 -9 64 -31 30 -30 34 -31 50 -15 17 15 20 14 47 -14 24
-25 37 -30 75 -30 40 0 51 -5 81 -36 27 -29 39 -34 62 -30 20 4 32 0 44 -14
10 -11 28 -20 41 -20 12 0 25 -7 28 -15 4 -10 20 -15 44 -15 21 0 43 -7 50
-15 7 -8 29 -15 50 -15 24 0 40 -5 44 -15 3 -8 17 -15 30 -15 14 0 29 -8 34
-17 8 -13 21 -16 56 -14 42 2 51 -2 83 -34 34 -34 38 -36 50 -19 12 17 15 16
46 -14 28 -27 41 -32 80 -32 40 0 53 -5 77 -30 25 -25 37 -30 78 -30 42 0 52
-5 81 -34 27 -28 39 -34 61 -29 20 4 33 -1 48 -17 11 -12 25 -19 31 -16 6 4
18 -2 28 -13 16 -19 18 -19 35 -4 17 15 20 15 51 -15 23 -22 43 -32 64 -32 17
0 36 -7 43 -15 7 -8 23 -15 35 -15 13 0 25 -7 29 -15 3 -10 19 -15 45 -15 27
0 43 -5 49 -17 8 -13 22 -16 59 -14 44 2 52 -2 83 -34 29 -30 40 -35 80 -35
39 0 52 -5 76 -30 21 -22 38 -30 65 -30 20 0 42 -7 49 -15 7 -8 21 -15 32 -15
10 0 21 -7 24 -15 8 -20 33 -19 41 1 5 12 12 9 39 -17 29 -28 40 -32 77 -31
31 2 50 -3 67 -18 29 -25 46 -25 60 -1 6 13 10 196 10 525 l0 506 -23 0 c-13
0 -32 7 -43 15 -10 8 -32 15 -47 15 -16 0 -52 9 -80 21 -162 66 -195 79 -229
89 -21 6 -40 16 -43 21 -4 5 -18 9 -33 9 -15 0 -44 9 -65 20 -20 11 -49 20
-63 20 -14 0 -37 9 -51 20 -14 11 -31 20 -38 20 -7 0 -26 7 -41 15 -16 8 -38
15 -49 15 -11 0 -29 6 -40 14 -11 7 -36 17 -55 21 -19 4 -45 14 -58 23 -12 8
-25 12 -29 9 -3 -4 -19 1 -37 10 -36 19 -236 91 -285 103 -18 5 -38 13 -44 19
-6 6 -20 11 -32 11 -11 0 -38 9 -60 20 -22 11 -47 20 -56 20 -9 0 -22 7 -29
15 -7 8 -23 15 -37 15 -13 0 -40 8 -61 18 -20 10 -64 27 -97 37 -33 9 -103 33
-155 52 -52 19 -126 46 -165 60 -38 14 -84 31 -102 39 -17 8 -37 14 -45 14 -7
0 -22 6 -33 14 -11 7 -31 16 -45 19 -32 7 -214 73 -239 87 -11 5 -27 10 -37
10 -9 0 -65 18 -123 41 -138 53 -201 76 -226 82 -11 3 -51 18 -90 32 -38 15
-84 31 -102 36 -18 5 -35 14 -38 19 -4 6 -16 10 -28 10 -12 0 -35 7 -51 15
-15 8 -35 15 -43 15 -8 0 -28 7 -46 17 -18 9 -45 20 -62 24 -46 11 -148 50
-163 62 -7 5 -15 7 -18 4 -3 -3 -22 1 -42 10 -56 23 -104 43 -137 58 -16 7
-41 16 -55 18 -14 3 -56 17 -95 31 -38 15 -101 37 -140 51 -38 13 -101 36
-140 50 -38 15 -81 30 -95 35 -14 4 -38 14 -55 20 -16 7 -38 15 -48 17 -10 1
-37 11 -60 22 -23 10 -67 26 -97 35 -51 17 -69 23 -158 62 -18 8 -50 18 -70
23 -20 5 -68 21 -107 35 -38 15 -97 36 -130 48 -71 24 -74 26 -56 37 7 5 10
14 7 20 -10 16 -26 14 -26 -4 0 -8 -4 -15 -9 -15 -16 0 -225 71 -236 80 -6 5
-29 13 -50 19 -46 11 -117 36 -160 56 -16 7 -71 27 -120 43 -85 29 -121 42
-170 63 -11 5 -56 20 -100 34 -44 14 -94 32 -112 40 -17 8 -40 15 -50 15 -11
0 -28 7 -39 15 -10 8 -25 15 -32 15 -8 0 -28 6 -45 14 -72 30 -96 39 -177 66
-47 16 -98 34 -115 41 -36 15 -122 46 -230 84 -44 15 -84 32 -89 36 -35 32
-36 18 -36 -446z"/>
<path d="M8400 9658 c-276 -15 -518 -116 -691 -288 -180 -180 -291 -415 -350
-741 -27 -155 -39 -595 -19 -773 62 -575 281 -938 657 -1089 143 -57 232 -72
423 -71 144 1 177 4 261 26 117 32 251 96 330 161 33 26 63 47 67 47 4 0 19
-42 33 -92 l25 -93 242 -3 242 -2 0 825 0 825 -640 0 -640 0 2 -307 3 -308
293 -3 292 -2 -4 -23 c-22 -108 -33 -141 -62 -204 -42 -88 -111 -160 -191
-200 -54 -26 -66 -28 -178 -28 -114 0 -123 2 -188 32 -118 56 -201 164 -245
318 -41 142 -47 208 -47 520 1 272 3 310 23 403 42 194 101 302 205 378 78 58
148 79 262 79 127 -1 207 -29 285 -102 97 -90 140 -202 140 -368 l0 -85 346 0
346 0 -7 123 c-14 267 -67 436 -197 623 -64 93 -153 178 -260 248 -215 140
-440 192 -758 174z"/>
<path d="M220 8190 l0 -450 23 0 c12 0 31 -9 40 -21 10 -11 24 -18 32 -16 7 3
21 -3 31 -14 12 -14 30 -19 64 -19 38 0 51 -5 75 -30 16 -16 38 -30 48 -30 11
0 26 -8 32 -17 13 -17 14 -17 33 0 19 17 20 17 47 -14 24 -29 32 -32 73 -30
42 2 51 -2 82 -34 29 -30 40 -35 80 -35 37 0 52 -6 78 -30 27 -25 42 -30 81
-30 39 0 52 -5 76 -30 22 -23 38 -30 66 -30 24 0 39 -5 43 -15 3 -8 17 -15 30
-15 15 0 30 -8 37 -21 9 -17 17 -20 43 -15 25 5 37 2 51 -14 11 -12 31 -20 50
-20 18 0 38 -7 45 -15 7 -8 27 -15 45 -15 22 0 40 -9 61 -30 22 -22 38 -30 67
-30 24 0 40 -5 43 -15 4 -8 16 -15 29 -15 12 0 30 -9 40 -20 12 -13 25 -17 44
-14 19 4 32 0 45 -15 11 -12 29 -21 41 -21 13 0 25 -7 29 -15 3 -10 19 -15 46
-15 27 0 43 -5 46 -15 4 -8 17 -15 30 -15 14 0 27 -7 30 -15 4 -10 20 -15 44
-15 21 0 43 -7 50 -15 8 -9 30 -15 59 -15 38 0 52 -6 85 -34 21 -19 44 -32 51
-30 8 3 19 -4 25 -16 11 -21 12 -21 31 -4 19 17 21 16 52 -14 18 -18 39 -32
47 -32 7 0 22 -8 32 -17 17 -15 19 -15 32 3 13 18 15 17 42 -14 23 -25 36 -32
67 -32 24 0 40 -5 43 -15 4 -8 16 -15 29 -15 12 0 30 -9 39 -19 14 -15 26 -18
52 -14 27 4 43 0 67 -17 18 -13 36 -29 40 -37 5 -8 28 -13 61 -13 45 0 56 -4
81 -30 20 -21 38 -30 61 -30 17 0 37 -7 44 -15 7 -8 23 -15 35 -15 13 0 25 -7
29 -15 4 -11 20 -15 55 -15 42 0 54 -5 87 -35 32 -29 47 -35 85 -35 37 0 50
-5 74 -30 22 -23 38 -30 66 -30 24 0 39 -5 43 -15 3 -8 17 -15 31 -15 14 0 28
-7 31 -15 4 -10 20 -15 44 -15 21 0 43 -7 50 -15 7 -8 20 -15 30 -15 9 0 25
-9 36 -21 13 -15 26 -19 47 -15 20 4 32 0 44 -14 12 -14 30 -20 56 -20 24 0
40 -5 43 -15 4 -8 17 -15 30 -15 14 0 27 -7 30 -15 4 -8 16 -15 29 -15 12 0
28 -7 35 -15 7 -8 29 -15 50 -15 24 0 40 -5 44 -15 3 -8 16 -15 28 -15 13 0
31 -9 41 -20 12 -15 24 -19 43 -14 18 5 31 0 49 -16 13 -12 28 -19 33 -16 5 3
17 -3 27 -14 11 -12 31 -20 50 -20 18 0 38 -7 45 -15 7 -8 29 -15 50 -15 24 0
40 -5 44 -15 3 -8 17 -15 31 -15 14 0 28 -7 31 -15 4 -11 21 -15 58 -15 46 0
56 -4 86 -35 19 -19 39 -34 45 -31 5 2 20 -6 32 -17 20 -18 23 -18 29 -3 9 24
26 20 54 -14 14 -16 33 -30 44 -30 10 0 25 -8 32 -17 13 -17 15 -17 29 1 15
19 16 19 48 -12 27 -26 41 -32 78 -32 36 0 51 -6 79 -32 29 -26 42 -31 77 -29
36 2 48 -4 81 -34 33 -29 47 -35 84 -35 36 0 50 -6 74 -30 22 -22 38 -30 67
-30 24 0 40 -5 43 -15 4 -8 16 -15 29 -15 12 0 28 -7 35 -15 8 -9 30 -15 60
-15 34 0 52 -5 64 -19 10 -11 24 -17 31 -14 8 2 22 -5 32 -16 11 -14 29 -21
52 -21 25 0 42 -8 63 -30 20 -22 37 -30 62 -30 18 0 39 -7 46 -15 7 -8 20 -15
30 -15 10 0 23 -7 30 -15 7 -9 29 -15 51 -15 25 0 41 -6 48 -17 6 -12 20 -16
43 -15 24 2 40 -4 52 -17 10 -11 23 -18 30 -15 7 3 21 -4 31 -16 11 -12 31
-20 50 -20 18 0 38 -7 45 -15 7 -8 23 -15 35 -15 13 0 25 -7 29 -15 3 -8 15
-15 27 -15 12 0 28 -8 34 -17 13 -17 14 -17 32 0 19 16 21 16 48 -13 23 -24
37 -30 72 -30 l43 0 0 485 0 485 -27 6 c-16 3 -46 12 -68 21 -22 8 -49 19 -60
23 -11 4 -41 17 -68 29 -26 11 -56 21 -65 21 -10 0 -22 4 -28 9 -5 6 -47 24
-94 41 -142 52 -164 61 -197 77 -17 8 -30 20 -27 26 6 17 -12 41 -25 33 -6 -4
-9 -12 -6 -17 9 -14 -40 -11 -72 5 -38 19 -127 54 -193 78 -61 21 -169 62
-215 83 -16 7 -54 20 -82 30 -29 9 -55 20 -58 25 -3 4 -21 11 -42 15 -20 4
-46 13 -57 21 -11 8 -27 14 -34 14 -15 0 -68 22 -114 46 -14 8 -33 14 -42 14
-8 0 -35 9 -58 19 -50 22 -169 69 -248 99 -30 11 -96 36 -146 56 -51 20 -95
36 -99 36 -4 0 -26 9 -49 19 -23 11 -68 29 -101 41 -75 27 -131 49 -170 65
-16 7 -68 27 -115 45 -47 17 -105 40 -130 50 -25 10 -66 26 -92 35 -35 13 -49
24 -57 46 -10 30 -31 40 -31 14 0 -21 -33 -19 -80 5 -22 11 -40 18 -40 15 0
-4 -12 1 -27 9 -16 8 -55 24 -88 37 -85 31 -96 35 -137 53 -20 9 -41 16 -48
16 -7 0 -24 6 -38 14 -31 16 -195 81 -232 91 -14 4 -30 11 -35 16 -6 4 -33 15
-60 24 -28 9 -63 22 -80 29 -16 8 -46 19 -65 26 -94 33 -196 73 -204 81 -6 5
-18 9 -28 9 -10 0 -26 4 -36 9 -29 16 -106 48 -127 54 -11 3 -56 20 -100 37
-44 18 -100 40 -125 49 -25 10 -62 25 -84 34 -21 9 -47 17 -57 17 -10 0 -21 5
-24 10 -3 6 -14 10 -24 10 -10 0 -24 7 -31 15 -7 8 -22 15 -34 15 -12 0 -44
11 -72 24 -27 13 -66 29 -87 36 -22 7 -51 18 -65 26 -15 8 -34 14 -43 14 -8 0
-39 11 -67 25 -29 14 -57 25 -62 25 -10 0 -46 15 -137 56 -17 8 -37 14 -45 14
-8 0 -23 7 -34 15 -10 8 -27 15 -37 15 -11 0 -34 7 -53 15 -19 8 -49 22 -68
30 -19 8 -40 15 -48 15 -7 0 -22 6 -33 13 -11 7 -55 26 -98 41 -42 16 -80 32
-83 37 -3 5 -15 9 -27 9 -12 0 -34 6 -48 14 -15 7 -51 21 -80 31 -30 9 -63 23
-74 30 -11 6 -38 18 -60 25 -45 14 -235 84 -280 104 -16 7 -46 20 -65 29 -19
8 -53 21 -75 28 -22 6 -58 19 -80 29 -22 9 -56 22 -75 29 -108 39 -146 55
-158 64 -7 5 -28 12 -47 14 l-35 3 0 -450z"/>
<path d="M4695 8170 c-9 -15 -1 -23 21 -18 15 3 16 4 1 16 -11 9 -17 10 -22 2z"/>
<path d="M227 7604 c-4 -4 -7 -207 -7 -450 l0 -443 24 -25 c13 -15 33 -26 45
-26 12 0 24 -7 27 -15 4 -10 20 -15 44 -15 21 0 43 -7 50 -15 7 -8 20 -15 30
-15 10 0 23 -7 30 -15 8 -10 30 -15 62 -15 41 0 53 -5 78 -30 21 -22 39 -30
63 -30 21 0 41 -7 51 -19 10 -11 23 -18 30 -15 7 3 21 -4 31 -16 10 -11 26
-20 35 -20 10 0 23 -7 30 -15 7 -8 29 -15 50 -15 24 0 40 -5 44 -15 3 -8 17
-15 31 -15 14 0 28 -7 31 -15 4 -10 20 -15 44 -15 21 0 43 -7 50 -15 7 -8 20
-15 30 -15 9 0 25 -9 34 -19 13 -15 26 -18 51 -14 27 4 35 1 45 -17 7 -13 17
-19 26 -16 8 3 22 -3 31 -14 12 -13 30 -20 54 -20 20 0 42 -7 49 -15 7 -8 27
-15 44 -15 23 0 41 -9 61 -30 22 -23 38 -30 67 -30 25 0 41 -5 44 -15 4 -8 16
-15 28 -15 12 0 29 -9 39 -20 9 -11 22 -17 30 -14 7 2 22 -4 32 -16 13 -15 31
-20 65 -20 38 0 51 -5 75 -30 24 -25 37 -30 75 -30 37 0 52 -6 78 -30 23 -21
44 -30 66 -30 19 0 39 -7 46 -15 7 -8 27 -15 44 -15 23 0 41 -9 66 -35 30 -31
40 -35 83 -35 42 0 54 -5 79 -30 20 -22 37 -30 62 -30 18 0 39 -7 46 -15 7 -8
20 -15 30 -15 10 0 23 -7 30 -15 7 -8 22 -15 34 -15 12 0 26 -8 33 -19 10 -15
20 -18 56 -14 40 5 48 2 81 -31 33 -31 44 -36 85 -36 39 0 52 -5 76 -30 16
-16 39 -30 51 -30 12 0 24 -7 28 -15 3 -10 19 -15 46 -15 27 0 43 -5 46 -15 4
-8 16 -15 29 -15 12 0 30 -9 40 -20 12 -13 25 -17 44 -14 19 4 32 0 45 -15 11
-12 30 -21 43 -21 14 0 23 -6 23 -15 0 -10 10 -15 26 -15 15 0 33 -8 40 -17
12 -17 14 -17 28 2 16 20 16 19 46 -12 16 -18 38 -33 49 -33 10 0 24 -7 31
-15 7 -8 27 -15 45 -15 18 0 38 -7 45 -15 7 -8 23 -15 36 -15 13 0 28 -9 34
-21 10 -17 17 -19 54 -14 40 6 46 4 81 -29 27 -27 45 -36 70 -36 18 0 38 -7
45 -15 7 -8 23 -15 35 -15 13 0 25 -7 29 -15 3 -8 16 -15 30 -15 13 0 26 -7
30 -15 4 -11 21 -15 59 -15 48 0 56 -4 88 -36 27 -28 40 -34 60 -30 19 3 32
-1 44 -14 10 -11 28 -20 40 -20 13 0 25 -7 29 -15 3 -10 19 -15 46 -15 27 0
43 -5 46 -15 4 -8 17 -15 30 -15 14 0 27 -7 30 -15 4 -8 16 -15 29 -15 12 0
28 -7 35 -15 8 -9 30 -15 59 -15 40 0 52 -5 84 -36 29 -28 43 -35 63 -31 18 3
33 -2 45 -14 11 -11 28 -19 39 -19 11 0 23 -7 26 -15 4 -10 20 -15 44 -15 21
0 43 -7 50 -15 7 -8 27 -15 44 -15 21 0 43 -11 69 -34 28 -24 44 -32 63 -28
17 3 31 -2 45 -16 10 -12 25 -19 32 -16 7 2 22 -4 32 -16 11 -12 31 -20 50
-20 18 0 38 -7 45 -15 7 -8 23 -15 35 -15 13 0 25 -7 29 -15 3 -8 17 -15 31
-15 14 0 28 -7 31 -15 4 -10 20 -15 45 -15 26 0 42 -5 45 -15 4 -8 16 -15 29
-15 12 0 30 -9 40 -20 12 -13 25 -17 44 -14 19 4 32 0 45 -15 11 -12 29 -21
41 -21 13 0 25 -7 29 -15 3 -8 16 -15 30 -15 13 0 26 -7 30 -15 3 -10 19 -15
44 -15 23 0 45 -6 52 -15 7 -8 20 -15 30 -15 10 0 23 -7 30 -15 8 -9 30 -15
59 -15 40 0 52 -5 83 -35 22 -22 42 -33 51 -29 10 3 20 -2 27 -15 8 -16 20
-21 49 -21 22 0 44 -6 51 -15 7 -8 20 -15 30 -15 10 0 23 -7 30 -15 8 -9 30
-15 59 -15 38 0 53 -6 79 -30 18 -17 41 -30 50 -30 10 0 25 -9 35 -20 12 -15
24 -19 43 -14 18 5 31 0 49 -16 13 -12 28 -19 33 -16 5 3 17 -3 27 -14 12 -13
31 -20 53 -20 21 0 40 -7 48 -17 13 -17 15 -17 28 0 7 9 18 17 25 17 8 0 11
116 11 433 l0 433 -28 27 c-23 22 -34 26 -59 21 -25 -5 -33 -2 -42 15 -7 13
-22 21 -37 21 -13 0 -27 7 -30 15 -4 10 -20 15 -44 15 -21 0 -43 7 -50 15 -7
8 -27 15 -44 15 -23 0 -41 9 -61 30 -22 23 -38 30 -67 30 -25 0 -41 5 -44 15
-4 8 -16 15 -29 15 -12 0 -30 9 -41 21 -13 15 -26 19 -45 15 -19 -3 -32 1 -44
14 -10 11 -28 20 -40 20 -13 0 -25 7 -29 15 -3 8 -16 15 -30 15 -13 0 -26 7
-30 15 -4 11 -21 15 -59 15 -46 0 -57 4 -82 30 -20 21 -38 30 -60 30 -19 0
-39 8 -49 19 -10 11 -24 17 -31 14 -8 -2 -22 5 -32 16 -9 12 -27 21 -39 21
-12 0 -25 7 -28 16 -6 15 -8 15 -27 -2 -21 -18 -21 -18 -50 14 -16 17 -37 32
-48 32 -10 0 -24 7 -31 15 -7 8 -29 15 -50 15 -24 0 -40 5 -44 15 -3 8 -17 15
-30 15 -14 0 -29 8 -34 17 -8 13 -22 16 -59 14 -44 -2 -52 2 -83 34 -18 19
-42 35 -51 35 -10 0 -22 8 -28 17 -9 17 -10 17 -28 0 -19 -16 -21 -15 -48 13
-16 17 -39 30 -52 30 -13 0 -26 7 -29 15 -4 10 -20 15 -44 15 -21 0 -43 7 -50
15 -7 8 -27 15 -45 15 -19 0 -39 8 -49 19 -10 11 -23 18 -30 15 -7 -3 -21 4
-31 16 -10 11 -28 20 -40 20 -13 0 -25 7 -29 15 -3 10 -19 15 -46 15 -27 0
-43 5 -46 15 -4 8 -16 15 -29 15 -12 0 -28 7 -35 15 -7 8 -27 15 -45 15 -18 0
-38 7 -45 15 -7 8 -23 15 -35 15 -13 0 -25 7 -29 15 -3 10 -19 15 -43 15 -26
0 -44 6 -56 20 -12 14 -24 19 -41 14 -18 -4 -33 3 -64 30 -33 30 -47 36 -84
36 -36 0 -50 5 -73 30 -22 23 -38 30 -67 30 -25 0 -41 5 -44 15 -4 8 -16 15
-29 15 -12 0 -28 7 -35 15 -7 8 -20 15 -30 15 -9 0 -25 9 -36 21 -13 15 -26
19 -45 15 -19 -3 -32 1 -44 14 -10 11 -28 20 -40 20 -13 0 -25 7 -29 15 -3 10
-19 15 -46 15 -27 0 -43 5 -46 15 -4 8 -16 15 -29 15 -12 0 -28 7 -35 15 -7 8
-27 15 -45 15 -18 0 -38 7 -45 15 -7 8 -22 15 -34 15 -12 0 -27 9 -34 21 -8
12 -19 18 -28 15 -7 -3 -23 4 -33 16 -14 14 -28 19 -47 15 -18 -3 -32 1 -45
14 -11 11 -27 19 -38 19 -10 0 -24 7 -31 15 -7 8 -27 15 -45 15 -18 0 -38 7
-45 15 -7 8 -23 15 -35 15 -13 0 -25 7 -29 15 -4 10 -20 15 -52 15 -39 0 -54
6 -90 35 -32 26 -49 34 -66 30 -17 -4 -30 0 -42 14 -11 12 -29 21 -41 21 -13
0 -25 7 -29 15 -3 8 -16 15 -30 15 -13 0 -26 7 -30 15 -4 11 -21 15 -59 15
-46 0 -57 4 -82 30 -24 25 -37 30 -75 30 -40 0 -51 5 -81 36 -27 29 -39 34
-62 30 -20 -4 -32 0 -44 14 -12 13 -30 20 -53 20 -27 0 -44 8 -65 30 -24 25
-37 30 -75 30 -38 0 -51 5 -75 30 -24 25 -37 30 -76 30 -39 0 -53 5 -85 35
-22 19 -47 35 -56 35 -9 0 -21 8 -27 17 -9 17 -10 17 -28 0 -19 -16 -21 -15
-48 13 -16 17 -39 30 -51 30 -12 0 -24 7 -28 15 -3 10 -19 15 -46 15 -27 0
-43 5 -46 15 -4 8 -16 15 -29 15 -12 0 -28 7 -35 15 -7 8 -19 15 -28 15 -8 0
-23 7 -33 16 -14 13 -21 13 -37 3 -18 -11 -23 -9 -47 19 -16 19 -36 32 -50 32
-12 0 -25 7 -29 15 -3 10 -19 15 -44 15 -23 0 -45 6 -52 15 -7 8 -27 15 -45
15 -18 0 -38 7 -45 15 -7 8 -20 15 -30 15 -10 0 -23 7 -30 15 -7 8 -29 15 -49
15 -24 0 -42 7 -54 20 -12 14 -24 19 -40 15 -18 -5 -33 3 -63 29 -27 25 -49
36 -70 36 -17 0 -37 7 -44 15 -7 8 -23 15 -35 15 -13 0 -25 7 -29 15 -3 10
-19 15 -46 15 -27 0 -43 5 -46 15 -4 8 -17 15 -30 15 -14 0 -27 7 -30 15 -4 8
-16 15 -29 15 -12 0 -30 9 -40 20 -14 16 -26 19 -57 14 -36 -6 -43 -3 -77 30
-20 20 -40 33 -44 30z"/>
<path d="M227 6503 c-4 -3 -7 -195 -7 -425 0 -327 3 -418 13 -419 6 -1 23 0
35 1 13 1 34 -8 47 -20 13 -12 28 -19 33 -16 5 3 17 -3 27 -14 12 -13 31 -20
55 -20 24 0 40 -5 44 -15 3 -8 16 -15 30 -15 13 0 26 -7 30 -15 3 -8 17 -15
31 -15 14 0 28 -7 31 -15 4 -8 17 -15 30 -15 14 0 27 -7 30 -15 4 -8 17 -15
30 -15 12 0 27 -8 33 -17 9 -16 13 -16 32 -5 19 12 25 11 53 -17 18 -17 41
-31 53 -31 11 0 23 -7 27 -15 3 -8 16 -15 30 -15 13 0 26 -7 30 -15 3 -10 19
-15 46 -15 27 0 43 -5 46 -15 4 -8 16 -15 29 -15 12 0 28 -7 35 -15 8 -9 30
-15 59 -15 40 0 52 -5 83 -36 21 -19 42 -33 47 -29 6 3 18 -3 28 -15 12 -13
30 -20 54 -20 20 0 42 -7 49 -15 7 -8 27 -15 44 -15 23 0 41 -9 61 -30 22 -23
38 -30 67 -30 25 0 41 -5 44 -15 4 -8 16 -15 28 -15 12 0 29 -9 39 -20 10 -12
22 -18 28 -14 6 3 21 -4 34 -16 17 -16 31 -21 48 -16 17 4 30 0 42 -14 10 -11
28 -20 40 -20 13 0 25 -7 29 -15 3 -8 16 -15 30 -15 13 0 26 -7 30 -15 3 -8
17 -15 31 -15 14 0 28 -7 31 -15 4 -10 20 -15 44 -15 21 0 43 -7 50 -15 7 -8
20 -15 30 -15 9 0 25 -9 35 -20 10 -11 22 -17 27 -14 5 3 20 -4 32 -15 15 -15
33 -21 55 -19 22 2 36 -3 42 -15 6 -9 21 -17 35 -17 13 0 27 -7 30 -15 4 -11
21 -15 58 -15 45 0 56 -4 81 -30 16 -16 36 -30 45 -30 9 0 25 -9 34 -19 13
-15 26 -18 51 -14 27 4 35 1 45 -17 10 -18 18 -21 42 -16 25 5 36 0 65 -29 26
-26 44 -35 68 -35 18 0 38 -7 45 -15 7 -8 23 -15 35 -15 13 0 25 -7 29 -15 3
-8 16 -15 30 -15 13 0 26 -7 30 -15 4 -11 20 -15 55 -15 42 0 54 -5 87 -35 22
-19 44 -33 51 -30 6 2 19 -5 29 -16 9 -10 28 -19 41 -19 14 0 23 -6 23 -15 0
-19 9 -19 31 1 17 16 20 15 46 -15 16 -18 37 -31 51 -31 12 0 25 -7 28 -15 4
-11 21 -15 58 -15 46 0 56 -4 86 -35 19 -20 40 -33 46 -31 7 3 20 -4 30 -15
12 -13 30 -19 63 -19 38 0 53 -6 79 -30 18 -16 41 -30 51 -30 10 0 24 -7 31
-15 7 -8 27 -15 45 -15 18 0 38 -7 45 -15 7 -8 22 -15 34 -15 12 0 27 -9 33
-19 8 -12 19 -17 32 -14 13 3 23 -2 31 -17 10 -18 17 -21 46 -16 27 6 36 3 46
-14 7 -11 22 -20 34 -20 12 0 27 -7 34 -15 7 -8 20 -15 30 -15 10 0 23 -7 30
-15 7 -8 20 -15 30 -15 10 0 23 -7 30 -15 7 -9 29 -15 52 -15 25 0 41 -5 44
-15 4 -8 16 -15 28 -15 12 0 29 -9 39 -20 9 -11 23 -17 31 -14 9 3 19 -3 26
-16 11 -21 12 -21 31 -4 19 17 21 16 52 -14 18 -18 42 -32 54 -32 11 0 23 -7
27 -15 4 -10 20 -15 53 -15 40 0 54 -5 81 -30 18 -17 41 -30 51 -30 10 0 25
-8 35 -19 11 -12 25 -16 42 -13 16 3 33 -2 47 -15 13 -12 37 -21 60 -21 46 -2
56 -7 67 -38 8 -20 16 -24 50 -24 27 0 43 -5 46 -15 4 -8 16 -15 29 -15 12 0
28 -7 35 -15 7 -8 20 -15 30 -15 10 0 23 -7 30 -15 8 -9 30 -15 58 -15 27 0
52 -6 62 -15 10 -9 27 -18 40 -20 12 -2 35 -18 50 -35 15 -16 37 -30 49 -30
12 0 24 -7 27 -15 5 -11 22 -15 68 -15 38 -1 68 -6 80 -15 11 -8 27 -15 37
-15 9 0 22 -7 29 -15 7 -8 21 -15 31 -15 9 0 24 -6 31 -13 7 -7 31 -17 53 -22
28 -7 41 -16 43 -30 6 -33 22 -42 38 -21 13 18 15 18 32 3 10 -9 25 -17 34
-17 17 0 159 -60 179 -76 8 -6 26 -14 42 -18 15 -3 27 -11 27 -16 0 -6 12 -10
28 -10 15 0 37 -6 48 -14 11 -8 45 -23 75 -34 100 -35 159 -66 159 -84 0 -22
19 -33 33 -19 6 6 18 11 28 11 12 0 15 -6 11 -25 -5 -29 14 -34 33 -8 12 16
14 16 38 0 60 -39 58 -59 55 426 -3 424 -4 443 -23 469 -11 15 -29 28 -40 28
-11 0 -28 9 -38 20 -12 15 -24 19 -43 14 -18 -5 -31 0 -49 16 -13 12 -28 19
-33 16 -5 -3 -17 3 -27 14 -13 15 -31 20 -67 20 -41 0 -53 5 -78 30 -25 25
-37 30 -78 30 -41 0 -53 5 -77 30 -16 17 -36 30 -45 30 -9 0 -25 9 -35 20 -14
16 -26 19 -51 14 -26 -5 -34 -2 -43 15 -7 13 -22 21 -37 21 -13 0 -27 7 -30
15 -4 11 -21 15 -58 15 -45 0 -56 4 -81 30 -22 23 -38 30 -67 30 -25 0 -41 5
-44 15 -4 8 -17 15 -30 15 -14 0 -27 7 -30 15 -4 8 -16 15 -29 15 -12 0 -30 9
-40 20 -14 16 -26 19 -55 14 -33 -5 -42 -2 -77 30 -30 27 -49 36 -76 36 -22 0
-37 6 -41 15 -3 8 -17 15 -31 15 -14 0 -28 7 -31 15 -4 10 -20 15 -44 15 -21
0 -43 7 -50 15 -7 8 -27 15 -44 15 -23 0 -41 9 -66 35 -30 31 -40 35 -83 35
-42 0 -54 5 -79 30 -20 22 -37 30 -62 30 -18 0 -39 7 -46 15 -7 8 -20 15 -30
15 -10 0 -23 7 -30 15 -7 8 -23 15 -35 15 -13 0 -25 7 -29 15 -4 11 -20 15
-55 15 -42 0 -54 5 -87 35 -32 29 -47 35 -85 35 -37 0 -50 5 -74 30 -16 17
-39 30 -51 30 -12 0 -24 7 -28 15 -3 10 -19 15 -46 15 -27 0 -43 5 -46 15 -4
8 -15 15 -27 15 -11 0 -29 8 -39 17 -13 11 -33 16 -61 14 -37 -2 -46 2 -76 33
-19 20 -44 36 -54 36 -11 0 -26 8 -33 18 -12 16 -14 16 -28 -3 -16 -20 -16
-19 -46 13 -16 17 -38 32 -49 32 -10 0 -24 7 -31 15 -7 8 -29 15 -50 15 -24 0
-40 5 -44 15 -3 8 -16 15 -30 15 -13 0 -26 7 -30 15 -3 8 -17 15 -30 15 -15 0
-30 8 -36 21 -11 20 -12 20 -31 3 -19 -17 -21 -16 -52 14 -18 18 -40 32 -49
32 -8 0 -21 7 -28 15 -7 8 -29 15 -50 15 -24 0 -40 5 -44 15 -3 8 -16 15 -30
15 -13 0 -26 7 -30 15 -4 11 -21 15 -66 15 -37 0 -60 4 -60 11 0 14 -51 55
-64 51 -5 -2 -19 6 -31 18 -15 14 -33 20 -54 18 -22 -2 -36 3 -42 15 -6 9 -21
17 -33 17 -13 0 -26 7 -30 15 -4 11 -21 15 -59 15 -46 0 -57 4 -82 30 -24 25
-37 30 -75 30 -40 0 -51 5 -80 35 -19 20 -40 33 -47 30 -8 -2 -21 4 -30 15
-12 13 -30 20 -54 20 -20 0 -42 7 -49 15 -7 8 -20 15 -30 15 -10 0 -23 7 -30
15 -8 9 -30 15 -59 15 -38 0 -53 6 -79 30 -23 20 -44 30 -65 30 -20 0 -39 8
-50 20 -10 12 -22 18 -28 14 -6 -3 -21 4 -34 16 -17 16 -31 21 -48 16 -17 -4
-30 0 -42 14 -10 11 -28 20 -40 20 -13 0 -25 7 -29 15 -3 8 -17 15 -31 15 -14
0 -28 7 -31 15 -4 11 -21 15 -58 15 -45 0 -56 4 -81 30 -20 21 -38 30 -60 30
-19 0 -39 8 -50 20 -10 12 -25 18 -32 16 -8 -3 -21 3 -30 14 -10 11 -27 20
-39 20 -12 0 -24 7 -28 15 -4 11 -21 15 -59 15 -46 0 -57 4 -82 30 -24 25 -37
30 -75 30 -37 0 -52 6 -78 30 -18 17 -41 30 -50 30 -10 0 -25 9 -35 20 -14 16
-28 20 -62 19 -39 -2 -50 2 -78 29 -27 26 -41 32 -78 32 -36 0 -51 6 -77 30
-18 17 -42 30 -53 30 -11 0 -22 7 -25 15 -4 10 -20 15 -44 15 -24 0 -43 7 -55
20 -10 11 -22 17 -27 14 -5 -3 -20 4 -33 16 -18 16 -31 21 -49 16 -19 -5 -31
-1 -43 14 -10 11 -28 20 -41 20 -12 0 -25 7 -28 15 -4 8 -17 15 -30 15 -12 0
-27 8 -33 17 -9 17 -10 17 -28 0 -19 -16 -21 -15 -48 13 -16 17 -36 30 -46 30
-9 0 -22 7 -29 15 -7 9 -29 15 -51 15 -28 0 -41 5 -49 20 -10 19 -40 27 -53
13z"/>
<path d="M7470 4935 l0 -1485 345 0 345 0 0 580 0 580 182 -2 182 -3 172 -445
c95 -245 196 -505 224 -577 l52 -133 374 0 c206 0 374 4 374 8 0 5 -119 300
-265 657 -146 356 -265 649 -265 651 0 2 25 20 56 39 73 47 190 166 232 238
53 89 99 205 118 296 23 116 15 353 -15 461 -98 347 -347 560 -714 609 -49 7
-329 11 -738 11 l-659 0 0 -1485z m1310 805 c29 -17 53 -41 70 -70 22 -40 25
-56 25 -145 -1 -84 -4 -108 -24 -148 -27 -55 -69 -90 -126 -106 -24 -7 -144
-11 -302 -11 l-263 0 0 256 0 255 288 -3 c285 -3 287 -3 332 -28z"/>
<path d="M220 4995 c0 -293 3 -375 13 -376 6 -1 23 0 37 0 15 1 34 -7 45 -18
11 -13 31 -21 50 -21 22 0 40 -9 60 -30 16 -16 39 -30 51 -30 12 0 24 -7 28
-15 3 -8 15 -15 27 -15 12 0 28 -8 34 -17 13 -17 14 -17 33 0 19 17 20 17 45
-13 14 -16 34 -30 45 -30 10 0 27 -9 37 -20 10 -11 22 -17 27 -14 5 3 20 -4
33 -16 18 -16 31 -21 49 -16 19 5 31 1 43 -14 10 -11 27 -20 39 -20 12 0 24
-7 28 -15 3 -8 17 -15 31 -15 14 0 28 -7 31 -15 4 -8 16 -15 29 -15 12 0 28
-7 35 -15 8 -9 30 -15 59 -15 41 0 52 -5 81 -35 19 -20 40 -33 47 -31 7 3 22
-4 32 -16 14 -14 28 -19 47 -15 18 3 32 -1 45 -14 11 -11 33 -19 52 -19 24 0
41 -8 62 -30 16 -16 36 -30 46 -30 9 0 22 -7 29 -15 7 -8 22 -15 34 -15 12 0
27 -9 33 -19 10 -16 20 -19 47 -14 28 4 36 1 46 -17 8 -15 18 -20 31 -17 13 3
24 -2 32 -14 6 -10 21 -19 33 -19 12 0 27 -7 34 -15 8 -9 30 -15 60 -15 39 0
52 -5 76 -30 16 -16 39 -30 52 -30 12 0 25 -7 28 -15 4 -8 16 -15 28 -15 12 0
29 -9 38 -19 13 -15 25 -18 56 -14 35 5 44 1 79 -31 22 -20 50 -36 61 -36 11
0 22 -7 26 -15 3 -10 19 -15 46 -15 27 0 43 -5 46 -15 4 -10 19 -15 43 -15 28
0 44 -7 66 -30 16 -16 36 -30 45 -30 9 0 25 -9 35 -20 14 -15 26 -19 46 -15
21 5 33 1 46 -14 9 -12 27 -21 39 -21 12 0 24 -7 28 -15 3 -8 17 -15 31 -15
14 0 28 -7 31 -15 4 -8 17 -15 30 -15 14 0 27 -7 30 -15 4 -10 20 -15 44 -15
21 0 43 -7 50 -15 7 -8 22 -15 34 -15 12 0 27 -9 33 -19 8 -12 19 -17 32 -14
13 3 23 -2 30 -16 7 -12 22 -21 35 -21 13 0 26 -7 30 -15 4 -11 21 -15 58 -15
53 -1 98 -23 98 -49 0 -6 11 -11 24 -11 13 0 29 -7 36 -15 7 -8 23 -15 35 -15
13 0 25 -7 29 -15 4 -10 20 -15 54 -15 41 0 54 -5 86 -35 21 -19 46 -35 56
-35 10 0 23 -7 30 -15 7 -8 29 -15 50 -15 24 0 40 -5 44 -15 3 -8 16 -15 30
-15 13 0 26 -7 30 -15 3 -8 17 -15 31 -15 14 0 28 -7 31 -15 4 -8 17 -15 30
-15 12 0 27 -8 32 -17 8 -13 22 -16 59 -14 44 2 52 -2 83 -34 18 -19 44 -35
56 -35 12 0 24 -7 28 -15 3 -10 19 -15 46 -15 27 0 43 -5 46 -15 4 -10 19 -15
43 -15 28 0 44 -7 66 -30 16 -16 36 -30 45 -30 9 0 25 -9 35 -20 10 -11 22
-17 27 -14 5 3 20 -4 33 -16 22 -20 25 -21 31 -6 8 20 30 21 38 1 3 -8 15 -15
26 -15 11 0 34 -14 50 -30 16 -17 39 -30 50 -30 11 0 23 -7 26 -15 4 -10 20
-15 44 -15 21 0 43 -7 50 -15 7 -8 27 -15 44 -15 24 0 41 -9 66 -35 19 -20 40
-33 47 -30 8 2 21 -4 30 -15 13 -15 30 -20 68 -20 44 0 55 -4 80 -30 16 -16
36 -30 46 -30 9 0 22 -7 29 -15 7 -9 29 -15 52 -15 25 0 41 -5 44 -15 4 -9 19
-15 39 -15 23 0 44 -10 71 -35 22 -19 44 -33 51 -30 6 2 19 -5 29 -16 9 -10
25 -19 34 -19 10 0 23 -7 30 -15 8 -9 30 -15 59 -15 38 0 53 -6 79 -30 18 -17
42 -30 53 -30 11 0 22 -7 25 -15 4 -10 20 -15 44 -15 24 0 43 -7 54 -19 10
-11 23 -18 30 -15 7 3 21 -4 31 -16 10 -11 28 -20 40 -20 13 0 25 -7 29 -15 3
-8 16 -15 30 -15 13 0 26 -7 30 -15 4 -11 21 -15 59 -15 46 0 57 -4 82 -30 16
-16 36 -30 45 -30 9 0 25 -9 35 -20 12 -13 25 -17 44 -14 19 4 32 0 45 -15 12
-13 31 -21 51 -21 23 0 43 -9 65 -30 18 -16 41 -30 51 -30 11 0 22 -7 25 -15
4 -8 16 -15 29 -15 12 0 28 -7 35 -15 7 -8 29 -15 50 -15 24 0 40 -5 44 -15 3
-8 17 -15 30 -15 15 0 30 -8 36 -19 6 -12 17 -17 29 -14 13 3 23 -2 30 -16 8
-15 21 -21 44 -21 61 0 59 -18 57 397 l-1 380 31 33 c34 36 26 54 -18 43 -18
-4 -32 3 -62 32 -31 30 -44 37 -65 32 -19 -3 -33 1 -46 14 -11 11 -33 19 -52
19 -24 0 -41 8 -62 30 -22 23 -38 30 -66 30 -24 0 -39 5 -43 15 -3 8 -17 15
-31 15 -14 0 -28 7 -31 15 -4 8 -17 15 -30 15 -13 0 -28 9 -34 19 -8 16 -21
20 -61 19 -44 0 -56 4 -83 31 -24 23 -41 31 -68 31 -23 0 -38 6 -42 15 -3 9
-19 15 -41 15 -26 0 -43 8 -65 30 -21 22 -39 30 -63 30 -21 0 -41 7 -51 19
-10 11 -23 18 -30 15 -7 -3 -21 4 -31 16 -10 11 -26 20 -35 20 -10 0 -23 7
-30 15 -7 8 -29 15 -50 15 -24 0 -40 5 -44 15 -3 8 -17 15 -31 15 -14 0 -28 7
-31 15 -4 8 -16 15 -29 15 -12 0 -28 7 -35 15 -8 9 -30 15 -59 15 -41 0 -52 5
-81 35 -19 20 -40 33 -47 31 -7 -3 -22 4 -32 16 -14 14 -28 19 -47 15 -18 -3
-32 1 -45 14 -11 11 -27 19 -38 19 -10 0 -24 7 -31 15 -7 8 -20 15 -30 15 -10
0 -23 7 -30 15 -8 9 -30 15 -59 15 -38 0 -52 6 -84 34 -28 24 -44 32 -63 28
-17 -3 -33 3 -49 18 -16 15 -31 21 -45 17 -15 -4 -33 4 -59 29 -32 28 -46 34
-82 34 -35 0 -51 6 -77 30 -18 17 -42 30 -53 30 -11 0 -22 7 -25 15 -4 11 -21
15 -58 15 -46 0 -56 4 -86 35 -28 28 -41 35 -68 33 -23 -1 -37 3 -43 15 -7 11
-22 17 -45 17 -25 0 -43 8 -64 30 -21 22 -39 30 -63 30 -19 0 -40 7 -47 15 -7
8 -27 15 -44 15 -24 0 -41 9 -67 36 -29 30 -39 34 -66 29 -26 -5 -34 -2 -43
15 -6 12 -21 20 -36 20 -13 0 -27 7 -30 15 -4 8 -16 15 -29 15 -12 0 -28 7
-35 15 -8 9 -30 15 -60 15 -39 0 -52 5 -76 30 -16 16 -38 30 -49 30 -11 0 -28
9 -37 19 -13 15 -25 18 -56 14 -35 -5 -44 -1 -79 31 -22 20 -47 36 -55 36 -9
0 -21 7 -28 15 -8 10 -30 15 -62 15 -41 0 -53 5 -78 30 -16 17 -38 30 -49 30
-11 0 -24 8 -30 18 -9 15 -13 15 -32 4 -19 -12 -25 -11 -53 16 -17 16 -36 28
-42 26 -6 -3 -19 5 -29 16 -13 15 -31 20 -67 20 -41 0 -53 5 -78 30 -16 17
-38 30 -48 30 -11 0 -25 7 -32 15 -8 9 -30 15 -59 15 -39 0 -52 5 -76 30 -16
17 -39 30 -52 30 -12 0 -27 9 -33 20 -9 16 -21 20 -61 20 -42 0 -55 5 -82 30
-21 20 -42 30 -63 30 -17 0 -37 7 -44 15 -7 8 -23 15 -35 15 -13 0 -25 7 -29
15 -3 8 -17 15 -31 15 -14 0 -28 7 -31 15 -4 10 -20 15 -44 15 -24 0 -43 7
-54 19 -10 11 -23 18 -30 15 -7 -3 -21 4 -31 16 -10 11 -26 20 -35 20 -10 0
-23 7 -30 15 -7 8 -29 15 -50 15 -24 0 -40 5 -44 15 -3 8 -17 15 -31 15 -14 0
-28 7 -31 15 -4 8 -17 15 -30 15 -14 0 -27 7 -30 15 -4 11 -21 15 -58 15 -46
0 -56 4 -86 35 -19 20 -40 33 -47 31 -7 -3 -22 4 -32 16 -14 14 -28 19 -47 15
-18 -3 -32 1 -45 14 -11 11 -28 19 -39 19 -11 0 -23 7 -26 15 -4 8 -17 15 -30
15 -14 0 -27 7 -30 15 -8 20 -30 19 -38 -2 -6 -14 -12 -12 -39 15 -18 18 -42
32 -54 32 -11 0 -23 7 -27 15 -3 8 -16 15 -28 15 -13 0 -29 9 -36 21 -13 20
-14 20 -33 3 -19 -17 -21 -16 -52 14 -18 18 -40 32 -49 32 -8 0 -21 7 -28 15
-8 9 -30 15 -60 15 -39 0 -52 5 -76 30 -16 16 -39 30 -52 30 -12 0 -25 7 -28
15 -4 10 -20 15 -44 15 -24 0 -43 7 -55 20 -10 11 -22 17 -27 14 -5 -3 -20 4
-33 16 -18 16 -31 21 -49 16 -19 -5 -31 -1 -43 14 -11 13 -30 20 -51 20 -23 0
-41 9 -62 30 -26 26 -36 30 -85 30 l-55 0 0 -375z"/>
<path d="M220 3971 l0 -419 48 -22 c26 -12 56 -26 67 -30 98 -43 183 -84 195
-94 8 -8 28 -16 43 -20 15 -4 75 -29 132 -57 81 -39 104 -55 109 -74 7 -28 23
-32 40 -10 9 13 24 9 101 -29 50 -24 144 -69 210 -100 103 -47 120 -59 123
-81 4 -28 26 -33 40 -9 8 14 26 8 140 -49 72 -36 142 -69 154 -72 45 -14 153
-68 185 -91 17 -13 40 -24 50 -24 11 0 44 -12 73 -26 30 -14 65 -30 78 -35 13
-5 28 -22 33 -39 12 -34 16 -36 39 -15 15 14 21 14 46 1 16 -8 49 -25 74 -36
25 -12 65 -32 89 -46 24 -13 48 -24 54 -24 17 0 212 -93 233 -112 11 -10 30
-18 41 -18 12 0 65 -22 120 -50 54 -27 101 -50 105 -50 6 0 88 -36 185 -82 24
-11 45 -24 49 -29 3 -5 13 -9 23 -9 10 0 68 -25 129 -55 85 -42 111 -60 114
-77 4 -25 28 -37 28 -14 0 24 15 20 134 -37 61 -30 149 -71 196 -93 47 -21 96
-46 109 -56 13 -10 32 -18 42 -18 11 0 67 -23 125 -51 75 -37 108 -58 115 -75
8 -23 39 -34 39 -14 0 6 5 10 10 10 19 0 197 -89 210 -104 7 -9 23 -16 35 -16
27 0 175 -68 175 -81 0 -5 12 -9 26 -9 15 0 85 -29 157 -65 72 -36 134 -65
138 -65 8 0 118 -51 359 -167 52 -25 111 -51 131 -58 19 -7 67 -29 105 -48 38
-20 96 -48 129 -62 148 -66 236 -110 246 -122 7 -7 21 -13 33 -13 28 0 218
-95 229 -115 5 -10 23 -15 51 -15 26 0 48 -6 56 -14 6 -8 21 -16 33 -18 17 -2
21 -9 19 -30 -2 -21 2 -28 14 -28 10 0 14 5 10 15 -10 28 33 16 56 -16 17 -23
28 -29 46 -24 15 4 49 -7 98 -30 42 -19 78 -35 81 -35 3 0 16 -9 30 -20 14
-11 33 -20 43 -20 9 0 61 -22 116 -50 54 -27 102 -50 106 -50 4 0 40 -16 79
-35 40 -19 74 -35 76 -35 2 0 2 226 1 503 l-3 502 -22 23 c-13 12 -31 22 -41
22 -10 0 -25 9 -35 20 -9 11 -23 17 -31 14 -8 -3 -19 3 -26 15 -8 16 -20 21
-54 21 -30 0 -46 5 -50 15 -3 9 -18 15 -39 15 -24 0 -42 8 -63 30 -16 16 -39
30 -52 30 -12 0 -25 7 -28 15 -4 10 -20 15 -44 15 -21 0 -43 7 -50 15 -7 8
-20 15 -30 15 -9 0 -25 9 -35 20 -10 12 -24 19 -31 16 -7 -3 -20 4 -30 15 -12
14 -30 19 -66 19 -41 0 -53 5 -78 30 -16 16 -39 30 -50 30 -11 0 -23 7 -26 15
-4 10 -20 15 -44 15 -21 0 -43 7 -50 15 -7 8 -27 15 -44 15 -24 0 -41 9 -66
35 -28 28 -41 35 -68 33 -23 -1 -38 4 -47 15 -7 10 -26 17 -47 17 -25 0 -42 8
-63 30 -16 17 -36 30 -46 30 -9 0 -22 7 -29 15 -8 9 -30 15 -59 15 -38 0 -52
6 -85 34 -21 19 -44 32 -51 29 -8 -2 -20 5 -27 16 -10 17 -23 21 -64 21 -43 0
-54 4 -79 30 -16 17 -39 30 -51 30 -12 0 -24 7 -28 15 -3 10 -19 15 -46 15
-27 0 -43 5 -46 15 -4 10 -19 15 -43 15 -29 0 -44 7 -72 36 -27 28 -40 34 -60
30 -19 -3 -32 1 -44 14 -11 12 -31 20 -49 20 -21 0 -43 10 -64 30 -18 17 -42
30 -53 30 -11 0 -22 7 -25 15 -4 10 -20 15 -44 15 -21 0 -43 7 -50 15 -7 8
-20 15 -30 15 -9 0 -25 9 -35 20 -10 12 -24 19 -31 16 -7 -3 -20 4 -30 15 -13
14 -30 19 -69 19 -38 0 -55 4 -59 15 -3 8 -16 15 -29 15 -13 0 -36 13 -52 30
-20 21 -38 30 -61 30 -17 0 -37 7 -44 15 -7 8 -27 15 -44 15 -23 0 -42 10 -68
36 -21 19 -42 33 -47 29 -6 -3 -18 3 -28 15 -13 15 -29 20 -68 20 -44 0 -55 4
-80 30 -16 17 -39 30 -51 30 -12 0 -24 7 -28 15 -3 10 -19 15 -46 15 -27 0
-43 5 -46 15 -4 10 -19 15 -43 15 -29 0 -44 7 -72 36 -27 28 -40 34 -60 30
-19 -3 -32 1 -44 14 -10 11 -29 20 -42 20 -14 0 -23 6 -23 15 0 10 -10 15 -29
15 -16 0 -31 6 -35 15 -3 10 -19 15 -46 15 -27 0 -43 5 -46 15 -4 8 -16 15
-29 15 -12 0 -28 7 -35 15 -7 8 -20 15 -30 15 -9 0 -25 9 -35 20 -10 12 -24
19 -31 16 -7 -3 -20 4 -30 15 -12 13 -30 19 -63 19 -38 0 -53 6 -79 30 -18 17
-41 30 -51 30 -10 0 -24 7 -31 15 -7 8 -27 15 -45 15 -18 0 -38 7 -45 15 -7 8
-27 15 -44 15 -23 0 -42 10 -68 36 -21 19 -42 33 -47 29 -6 -3 -18 3 -28 15
-12 13 -30 20 -54 20 -20 0 -42 7 -49 15 -7 8 -20 15 -30 15 -10 0 -23 7 -30
15 -7 8 -20 15 -30 15 -10 0 -23 7 -30 15 -7 9 -29 15 -52 15 -25 0 -41 5 -44
15 -4 8 -16 15 -28 15 -12 0 -29 9 -39 20 -10 12 -22 18 -28 14 -6 -3 -21 4
-34 16 -17 16 -31 21 -48 16 -17 -4 -30 0 -42 14 -11 12 -31 20 -50 20 -22 0
-41 9 -61 30 -22 22 -38 30 -67 30 -24 0 -40 5 -43 15 -4 10 -19 15 -43 15
-29 0 -44 7 -71 35 -19 20 -40 33 -46 31 -7 -3 -20 4 -30 15 -12 14 -30 19
-66 19 -41 0 -53 5 -78 30 -16 17 -39 30 -50 30 -11 0 -23 7 -26 15 -4 11 -21
15 -58 15 -46 0 -56 4 -85 34 -18 19 -39 32 -46 30 -7 -3 -22 5 -33 17 -15 16
-27 20 -46 15 -19 -5 -31 -1 -43 14 -10 11 -28 20 -41 20 -12 0 -25 7 -28 15
-4 8 -16 15 -29 15 -12 0 -28 7 -35 15 -7 8 -29 15 -50 15 -24 0 -40 5 -44 15
-3 9 -18 15 -38 15 -23 0 -44 10 -72 34 -21 19 -44 32 -51 29 -8 -2 -20 5 -27
16 -10 17 -23 21 -64 21 -34 0 -56 5 -64 15 -7 8 -20 15 -29 15 -10 0 -30 14
-46 30 -22 23 -38 30 -67 30 -25 0 -41 5 -44 15 -4 8 -17 15 -30 15 -14 0 -27
7 -30 15 -4 8 -12 15 -20 15 -12 0 -14 -68 -14 -419z"/>
<path d="M8340 3233 c-339 -36 -611 -208 -737 -465 -63 -129 -77 -197 -78
-378 0 -178 17 -270 70 -387 111 -241 277 -362 705 -513 321 -113 404 -158
457 -247 24 -42 28 -58 28 -128 0 -99 -23 -142 -98 -185 -136 -77 -339 -59
-438 40 -66 66 -89 142 -89 291 l0 109 -345 0 -345 0 0 -152 c0 -195 22 -306
83 -433 129 -264 351 -432 657 -495 193 -41 487 -27 675 31 301 92 512 330
570 644 13 70 16 130 13 275 -4 169 -7 192 -32 265 -53 156 -157 294 -293 391
-95 68 -266 144 -513 229 -246 84 -302 110 -361 167 -47 46 -59 73 -59 134 0
130 106 202 284 192 116 -6 177 -41 222 -128 14 -27 19 -64 22 -157 l4 -123
344 0 344 0 0 93 c0 205 -27 335 -100 483 -122 249 -356 402 -680 444 -72 9
-237 11 -310 3z"/>
</g>
</svg>
